<?xml version="1.0" standalone="no"?>
<!DOCTYPE svg PUBLIC "-//W3C//DTD SVG 20010904//EN"
 "http://www.w3.org/TR/2001/REC-SVG-20010904/DTD/svg10.dtd">
<svg version="1.0" xmlns="http://www.w3.org/2000/svg"
 width="200.000000pt" height="200.000000pt" viewBox="0 0 200.000000 200.000000"
 preserveAspectRatio="xMidYMid meet">

<g transform="translate(0.000000,200.000000) scale(0.100000,-0.100000)"
fill="#000000" stroke="none">
<path d="M931 1934 c34 -67 36 -106 9 -158 -16 -29 -18 -41 -9 -52 13 -16 15
-82 2 -95 -5 -5 -7 6 -5 27 3 27 -1 41 -19 60 -31 33 -39 30 -39 -11 0 -40 22
-100 47 -127 15 -17 15 -18 0 -18 -11 0 -14 -5 -10 -17 6 -16 4 -16 -16 2 -17
15 -21 27 -17 48 5 23 1 29 -22 39 -21 9 -23 12 -10 15 14 4 16 8 8 23 -8 16
-15 18 -35 10 -14 -5 -30 -7 -37 -5 -7 3 -31 -11 -53 -30 l-40 -35 33 6 c31 6
32 6 26 -25 -6 -30 -6 -31 25 -25 35 7 38 -1 15 -34 -9 -13 -14 -26 -10 -29 3
-3 15 11 27 31 26 44 32 42 19 -5 -12 -41 -36 -66 -104 -102 l-48 -27 -27 21
-26 21 25 -6 25 -7 -25 20 c-14 11 -29 21 -34 21 -6 0 -1 6 10 14 38 29 -30
57 -71 30 -30 -20 -38 -53 -20 -81 12 -18 21 -21 44 -17 16 4 32 1 35 -5 4 -6
1 -11 -8 -11 -24 0 -31 -22 -11 -37 11 -7 36 -13 56 -13 30 0 43 -7 64 -32 34
-41 62 -57 97 -58 32 0 58 -34 82 -105 25 -74 38 -89 110 -129 36 -20 80 -49
98 -64 l33 -27 -23 32 c-13 18 -43 45 -67 59 -45 26 -105 86 -105 105 0 6 16
-3 36 -21 20 -17 74 -56 121 -86 47 -30 110 -78 141 -107 l56 -52 -48 63 c-27
35 -83 92 -125 125 -107 87 -193 170 -215 209 -17 28 -12 25 30 -19 42 -42
136 -103 160 -103 3 0 -19 20 -49 45 -65 52 -129 137 -129 168 0 12 4 44 8 72
5 38 9 45 15 30 4 -11 8 -37 8 -58 1 -34 3 -37 21 -27 11 6 26 23 34 38 l15
27 1 -25 c1 -24 1 -24 15 -6 8 11 18 34 21 53 3 18 9 33 13 33 4 0 31 -24 61
-52 60 -59 95 -128 105 -203 3 -27 14 -84 23 -125 l17 -75 5 97 c3 53 10 102
15 107 7 7 26 -9 57 -48 l47 -59 -16 -48 c-9 -29 -17 -104 -20 -181 -3 -73 -7
-133 -9 -133 -2 0 -25 16 -50 36 -26 19 -65 45 -88 56 l-41 21 42 -41 c39 -39
70 -82 58 -82 -3 0 -16 7 -28 14 -31 21 -133 46 -186 46 l-44 0 33 -23 c44
-29 47 -43 10 -50 -21 -5 -37 -18 -51 -42 -12 -20 -26 -34 -32 -32 -22 7 -70
78 -89 129 l-19 53 4 -71 c3 -50 12 -85 31 -123 14 -29 26 -55 26 -57 0 -3
-14 6 -31 18 -36 26 -63 76 -74 133 -6 33 -9 37 -15 20 -5 -11 -9 -49 -9 -85
l-1 -65 -20 30 c-11 17 -20 44 -21 60 0 26 -2 27 -9 10 -5 -11 -9 -33 -9 -50
-1 -23 -4 -26 -13 -17 -8 8 -13 47 -14 106 -1 52 -7 104 -14 116 -10 20 -10
21 8 11 10 -5 26 -25 35 -43 14 -29 17 -30 17 -10 0 12 -7 38 -14 57 -8 19
-12 35 -7 35 12 0 51 -40 52 -53 0 -7 5 -1 10 13 6 14 7 50 4 83 -6 48 -4 62
11 78 15 17 11 16 -40 -6 -32 -14 -75 -34 -95 -45 -27 -13 -49 -17 -79 -13
-22 3 -58 2 -79 -2 l-38 -8 30 -7 c29 -7 29 -8 4 -9 -14 0 -52 -14 -83 -29
-31 -16 -56 -24 -56 -19 0 6 -13 -2 -29 -17 -24 -23 -35 -27 -60 -21 -17 4
-50 3 -74 -1 -41 -8 -41 -8 -12 -14 28 -6 26 -7 -20 -14 -39 -7 -46 -10 -30
-17 14 -5 3 -8 -35 -9 -36 0 -63 -7 -78 -18 -23 -18 -21 -18 85 -17 120 2 154
12 233 70 66 49 128 75 178 75 23 0 42 -3 42 -6 0 -3 -14 -26 -32 -51 -43 -63
-68 -134 -68 -191 0 -56 25 -146 50 -182 21 -31 38 -96 21 -86 -6 4 -11 15
-11 24 0 9 -4 23 -9 31 -7 11 -12 3 -21 -28 -9 -34 -8 -53 5 -97 24 -83 17
-94 -60 -94 -48 0 -73 -6 -106 -25 -43 -24 -43 -24 -19 -34 21 -8 17 -10 -28
-10 -42 -1 -62 -7 -92 -29 l-39 -27 87 -11 87 -11 -119 -2 c-101 -1 -124 -4
-152 -22 -19 -11 -34 -23 -34 -25 0 -2 443 -4 985 -4 837 0 984 2 979 14 -3 8
-32 18 -72 24 l-67 9 70 2 70 1 -25 20 c-21 17 -41 20 -141 20 l-115 0 -17 35
c-12 24 -23 35 -39 35 -17 0 -19 3 -10 12 23 23 12 37 -62 73 -61 30 -80 46
-109 88 -19 29 -62 86 -96 127 -34 41 -75 92 -92 113 -17 20 -51 48 -77 62
-26 13 -40 24 -32 24 24 1 93 -34 114 -58 24 -26 46 -27 79 -1 24 19 25 23 20
102 -3 47 0 94 5 108 9 21 11 15 11 -39 1 -35 8 -87 17 -115 15 -49 15 -55 -4
-116 -14 -45 -17 -69 -10 -78 16 -19 45 -14 53 11 8 21 8 21 12 -5 4 -23 9
-28 33 -28 16 0 31 4 34 9 3 4 -2 35 -11 67 -22 78 -21 122 7 225 14 56 20 97
16 115 -7 27 -8 26 -31 -30 -22 -54 -47 -96 -31 -51 4 11 10 69 13 129 l6 108
-31 -16 c-39 -20 -42 -5 -5 22 16 12 23 24 19 31 -11 18 -44 -14 -67 -64 -13
-28 -19 -34 -19 -19 0 11 14 49 31 83 l31 61 -31 48 c-40 63 -93 113 -165 156
-38 23 -70 52 -92 85 -36 53 -82 93 -127 110 -25 10 -27 9 -27 -15 0 -14 -4
-22 -10 -19 -5 3 -10 17 -10 31 0 13 -4 24 -9 24 -4 0 -11 -31 -14 -70 -8 -94
-22 -116 -23 -37 -1 34 -2 96 -4 137 -1 62 3 84 24 130 28 59 33 123 14 164
-8 19 -14 23 -24 15 -9 -7 -14 -5 -18 9 -4 10 -17 29 -30 41 -22 21 -22 20 5
-35z m-321 -428 c0 -3 -4 -8 -10 -11 -5 -3 -10 -1 -10 4 0 6 5 11 10 11 6 0
10 -2 10 -4z m582 -978 c35 -39 104 -101 153 -138 94 -71 125 -100 144 -137
19 -38 14 -43 -48 -43 -56 0 -60 -2 -82 -35 l-24 -35 -157 0 c-143 0 -158 2
-167 18 -8 15 -32 22 -103 33 l-93 14 55 5 c54 5 54 5 30 20 -14 8 -52 17 -85
20 l-60 5 3 39 c5 55 23 86 81 138 46 41 56 46 113 50 62 6 172 38 191 57 6 6
2 20 -12 37 -11 15 -21 36 -20 48 0 20 1 20 10 -2 5 -13 37 -55 71 -94z m-442
47 c14 -7 36 -25 50 -40 l25 -28 -32 17 c-44 22 -55 20 -86 -12 -25 -26 -26
-33 -29 -142 -3 -114 -3 -115 -28 -118 -19 -2 -30 5 -43 27 -17 29 -17 32 10
112 15 45 42 103 61 128 l35 45 -24 19 -23 18 30 -7 c16 -4 40 -12 54 -19z"/>
<path d="M486 1612 c-7 -22 19 -92 34 -92 4 0 13 7 20 15 11 13 9 19 -7 38
-11 12 -25 31 -30 41 -10 19 -11 19 -17 -2z"/>
</g>
</svg>
